<svg xmlns="http://www.w3.org/2000/svg" xmlns:xlink="http://www.w3.org/1999/xlink" width="1em" height="1em" preserveAspectRatio="xMidYMid meet" viewBox="0 0 256 256" style="-ms-transform: rotate(360deg); -webkit-transform: rotate(360deg); transform: rotate(360deg);"><path fill="currentColor" d="M32 200a16 16 0 0 0 16-16V64a8 8 0 0 1 8-8h160a8 8 0 0 1 8 8v120a16 16 0 0 1-16 16Z" opacity=".2"/><path fill="currentColor" d="M88 112a8 8 0 0 1 8-8h80a8 8 0 0 1 0 16H96a8 8 0 0 1-8-8Zm8 40h80a8 8 0 0 0 0-16H96a8 8 0 0 0 0 16Zm136-88v120a24.1 24.1 0 0 1-24 24H32a24 24 0 0 1-24-23.9V88a8 8 0 0 1 16 0v96a8 8 0 0 0 16 0V64a16 16 0 0 1 16-16h160a16 16 0 0 1 16 16Zm-16 0H56v120a23.6 23.6 0 0 1-1.4 8H208a8 8 0 0 0 8-8Z"/></svg>