<svg xmlns="http://www.w3.org/2000/svg" xmlns:xlink="http://www.w3.org/1999/xlink" width="500" zoomAndPan="magnify" viewBox="0 0 375 187.499995" height="250" preserveAspectRatio="xMidYMid meet" version="1.0"><defs><g/><clipPath id="id1"><path d="M 16 23.488281 L 132 23.488281 L 132 138 L 16 138 Z M 16 23.488281 " clip-rule="nonzero"/></clipPath><clipPath id="id2"><path d="M 0.585938 25.652344 L 135.792969 25.652344 L 135.792969 163.363281 L 0.585938 163.363281 Z M 0.585938 25.652344 " clip-rule="nonzero"/></clipPath></defs><path fill="#7ed957" d="M 43.816406 89.828125 C 43.816406 63.683594 65.019531 42.488281 91.175781 42.488281 C 108.089844 42.488281 122.921875 51.359375 131.300781 64.695312 C 123.539062 47.667969 106.378906 35.828125 86.4375 35.828125 C 59.21875 35.828125 37.152344 57.882812 37.152344 85.09375 C 37.152344 105.027344 48.996094 122.179688 66.027344 129.9375 C 52.691406 121.5625 43.816406 106.734375 43.816406 89.828125 " fill-opacity="1" fill-rule="nonzero"/><g clip-path="url(#id1)"><path fill="#f14726" d="M 24.910156 89.160156 C 24.910156 57.363281 50.695312 31.589844 82.503906 31.589844 C 103.074219 31.589844 121.113281 42.375 131.300781 58.59375 C 121.859375 37.886719 100.992188 23.488281 76.742188 23.488281 C 43.640625 23.488281 16.804688 50.3125 16.804688 83.402344 C 16.804688 107.640625 31.210938 128.5 51.925781 137.9375 C 35.703125 127.75 24.910156 109.71875 24.910156 89.160156 " fill-opacity="1" fill-rule="nonzero"/></g><g clip-path="url(#id2)"><path fill="#5271ff" d="M 76.261719 153.945312 C 38.363281 152.304688 8.96875 120.265625 10.609375 82.382812 C 11.667969 57.882812 25.457031 36.953125 45.3125 25.65625 C 20.144531 35.832031 1.902344 59.945312 0.652344 88.824219 C -1.050781 128.253906 29.539062 161.597656 68.980469 163.300781 C 97.875 164.550781 123.480469 148.46875 135.792969 124.28125 C 122.820312 143.078125 100.769531 155.003906 76.261719 153.945312 " fill-opacity="1" fill-rule="nonzero"/></g><g fill="#000000" fill-opacity="1"><g transform="translate(122.838195, 129.12994)"><g><path d="M 15.21875 0.542969 C 23.207031 0.542969 28.613281 -5.925781 28.613281 -13.640625 C 28.613281 -21.332031 23.207031 -27.71875 15.21875 -27.71875 C 7.203125 -27.71875 1.875 -21.332031 1.875 -13.640625 C 1.875 -5.925781 7.203125 0.542969 15.21875 0.542969 Z M 15.246094 -3.914062 C 9.703125 -3.914062 7.308594 -8.640625 7.308594 -13.640625 C 7.308594 -18.613281 9.703125 -23.234375 15.246094 -23.234375 C 20.816406 -23.234375 23.179688 -18.613281 23.179688 -13.640625 C 23.179688 -8.695312 20.816406 -3.914062 15.246094 -3.914062 Z M 15.246094 -3.914062 "/></g></g></g><g fill="#000000" fill-opacity="1"><g transform="translate(153.354339, 129.12994)"><g><path d="M 4.292969 0 L 9.59375 0 L 9.59375 -14.511719 C 9.59375 -18.804688 11.875 -22.988281 15.953125 -22.988281 C 20.027344 -22.988281 21.007812 -19.429688 21.007812 -15.925781 L 21.007812 0 L 26.332031 0 L 26.332031 -14.972656 C 26.332031 -19.050781 28.613281 -22.988281 32.664062 -22.988281 C 36.765625 -22.988281 37.800781 -19.320312 37.800781 -15.816406 L 37.800781 0 L 43.152344 0 L 43.152344 -16.414062 C 43.152344 -22.308594 40.273438 -27.71875 33.425781 -27.71875 C 29.757812 -27.71875 26.632812 -25.953125 24.730469 -22.445312 C 23.179688 -26.035156 20.328125 -27.71875 16.738281 -27.71875 C 13.75 -27.71875 11.003906 -26.140625 9.59375 -23.585938 L 9.59375 -27.148438 L 4.292969 -27.148438 Z M 4.292969 0 "/></g></g></g><g fill="#000000" fill-opacity="1"><g transform="translate(200.066048, 129.12994)"><g><path d="M 4.292969 0 L 9.59375 0 L 9.59375 -14.511719 C 9.59375 -18.804688 11.875 -22.988281 15.953125 -22.988281 C 20.027344 -22.988281 21.007812 -19.429688 21.007812 -15.925781 L 21.007812 0 L 26.332031 0 L 26.332031 -14.972656 C 26.332031 -19.050781 28.613281 -22.988281 32.664062 -22.988281 C 36.765625 -22.988281 37.800781 -19.320312 37.800781 -15.816406 L 37.800781 0 L 43.152344 0 L 43.152344 -16.414062 C 43.152344 -22.308594 40.273438 -27.71875 33.425781 -27.71875 C 29.757812 -27.71875 26.632812 -25.953125 24.730469 -22.445312 C 23.179688 -26.035156 20.328125 -27.71875 16.738281 -27.71875 C 13.75 -27.71875 11.003906 -26.140625 9.59375 -23.585938 L 9.59375 -27.148438 L 4.292969 -27.148438 Z M 4.292969 0 "/></g></g></g><g fill="#000000" fill-opacity="1"><g transform="translate(246.777756, 129.12994)"><g><path d="M 13.125 0.570312 C 16.902344 0.570312 19.917969 -1.496094 21.414062 -3.941406 L 21.414062 0 L 26.710938 0 L 26.710938 -27.148438 L 21.414062 -27.148438 L 21.414062 -13.425781 C 21.414062 -6.929688 17.933594 -4.050781 14.15625 -4.050781 C 9.808594 -4.050781 8.832031 -7.664062 8.832031 -11.820312 L 8.832031 -27.148438 L 3.503906 -27.148438 L 3.503906 -12.066406 C 3.503906 -4.648438 6.359375 0.570312 13.125 0.570312 Z M 13.125 0.570312 "/></g></g></g><g fill="#000000" fill-opacity="1"><g transform="translate(277.755848, 129.12994)"><g><path d="M 4.292969 0 L 9.511719 0 L 9.511719 -14.457031 C 9.511719 -20.246094 12.445312 -22.960938 16.441406 -22.960938 C 20.570312 -22.960938 22.148438 -19.457031 22.148438 -15.816406 L 22.148438 0 L 27.363281 0 L 27.363281 -16.414062 C 27.363281 -22.257812 24.675781 -27.664062 17.90625 -27.664062 C 14.566406 -27.664062 11.496094 -26.085938 9.511719 -23.152344 L 9.511719 -27.148438 L 4.292969 -27.148438 Z M 4.292969 0 "/></g></g></g><g fill="#000000" fill-opacity="1"><g transform="translate(308.706773, 129.12994)"><g><path d="M 4.078125 -32.746094 L 9.753906 -32.746094 L 9.753906 -38.398438 L 4.078125 -38.398438 Z M 4.292969 0 L 9.539062 0 L 9.539062 -27.148438 L 4.292969 -27.148438 Z M 4.292969 0 "/></g></g></g><g fill="#000000" fill-opacity="1"><g transform="translate(322.538226, 129.12994)"><g><path d="M 12.800781 0.542969 C 14.566406 0.542969 16.25 0.191406 17.039062 -0.136719 L 17.039062 -4.808594 C 16.167969 -4.375 14.945312 -3.96875 13.804688 -3.96875 C 11.957031 -3.96875 10.542969 -5.082031 10.542969 -7.878906 L 10.542969 -22.773438 L 17.417969 -22.773438 L 17.417969 -27.148438 L 10.542969 -27.148438 L 10.542969 -37.800781 L 5.378906 -33.5625 L 5.378906 -27.148438 L 0.949219 -27.148438 L 0.949219 -22.773438 L 5.328125 -22.773438 L 5.328125 -7.335938 C 5.328125 -2.554688 7.746094 0.542969 12.800781 0.542969 Z M 12.800781 0.542969 "/></g></g></g><g fill="#000000" fill-opacity="1"><g transform="translate(341.858779, 129.12994)"><g><path d="M 6.140625 11.683594 L 11.792969 11.683594 L 26.792969 -27.148438 L 21.03125 -27.148438 L 13.667969 -6.523438 L 6.222656 -27.148438 L 0.433594 -27.148438 L 10.953125 -0.40625 Z M 6.140625 11.683594 "/></g></g></g><g fill="#000000" fill-opacity="1"><g transform="translate(126.86854, 81.928783)"><g><path d="M 1.058594 0 L 7.09375 0 L 10.054688 -8.34375 L 26.007812 -8.34375 L 28.941406 0 L 34.890625 0 L 20.109375 -38.398438 L 15.925781 -38.398438 Z M 11.902344 -13.207031 L 18.042969 -30.273438 L 24.132812 -13.207031 Z M 11.902344 -13.207031 "/></g></g></g><g fill="#000000" fill-opacity="1"><g transform="translate(162.819438, 81.928783)"><g><path d="M 5.378906 0 L 10.871094 0 L 10.871094 -16.683594 L 16.738281 -16.683594 C 24.375 -16.683594 29.621094 -20.488281 29.621094 -27.445312 C 29.621094 -34.347656 24.375 -38.398438 16.738281 -38.398438 L 5.378906 -38.398438 Z M 10.871094 -21.738281 L 10.871094 -33.34375 L 16.738281 -33.34375 C 21.65625 -33.34375 24.160156 -31.167969 24.160156 -27.445312 C 24.160156 -23.667969 21.683594 -21.738281 16.738281 -21.738281 Z M 10.871094 -21.738281 "/></g></g></g><g fill="#000000" fill-opacity="1"><g transform="translate(194.259491, 81.928783)"><g><path d="M 15.707031 0.433594 C 22.773438 0.433594 28.316406 -3.914062 28.316406 -10.871094 C 28.316406 -23.425781 9.78125 -21.222656 9.78125 -29.183594 C 9.78125 -32.203125 12.363281 -34.105469 15.328125 -34.105469 C 18.152344 -34.105469 20.734375 -32.664062 22.203125 -29.835938 L 26.605469 -32.636719 C 24.105469 -36.984375 20.082031 -38.96875 15.460938 -38.96875 C 9.402344 -38.96875 4.320312 -35.136719 4.320312 -28.832031 C 4.320312 -16.765625 22.882812 -19.402344 22.882812 -10.40625 C 22.882812 -6.65625 20.136719 -4.484375 15.761719 -4.484375 C 11.441406 -4.484375 7.636719 -6.738281 7.121094 -11.738281 L 1.765625 -10.300781 C 2.933594 -3.125 9.183594 0.433594 15.707031 0.433594 Z M 15.707031 0.433594 "/></g></g></g><g fill="#000000" fill-opacity="1"><g transform="translate(224.775635, 81.928783)"><g><path d="M 5.378906 0 L 10.898438 0 L 10.898438 -38.398438 L 5.378906 -38.398438 Z M 5.378906 0 "/></g></g></g><g fill="#000000" fill-opacity="1"><g transform="translate(241.052727, 81.928783)"><g><path d="M 13.640625 0 L 19.183594 0 L 19.183594 -33.613281 L 31.710938 -33.613281 L 31.710938 -38.398438 L 1.113281 -38.398438 L 1.113281 -33.613281 L 13.640625 -33.613281 Z M 13.640625 0 "/></g></g></g></svg>