<svg xmlns="http://www.w3.org/2000/svg" xmlns:xlink="http://www.w3.org/1999/xlink" width="500" zoomAndPan="magnify" viewBox="0 0 375 374.999991" height="500" preserveAspectRatio="xMidYMid meet" version="1.0"><defs><clipPath id="id1"><path d="M 8.753906 138 L 216 138 L 216 264 L 8.753906 264 Z M 8.753906 138 " clip-rule="nonzero"/></clipPath><clipPath id="id2"><path d="M 216 113.15625 L 366.378906 113.15625 L 366.378906 318.261719 L 216 318.261719 Z M 216 113.15625 " clip-rule="nonzero"/></clipPath><clipPath id="id3"><path d="M 100 181.410156 L 267.714844 181.410156 L 267.714844 374.976562 L 100 374.976562 Z M 100 181.410156 " clip-rule="nonzero"/></clipPath></defs><path fill="#4f4c4c" d="M 141.875 356.820312 C 152.652344 354.269531 159.320312 343.472656 156.773438 332.703125 C 154.222656 321.929688 143.414062 315.265625 132.636719 317.8125 C 121.859375 320.359375 115.1875 331.160156 117.738281 341.929688 C 120.289062 352.699219 131.09375 359.367188 141.875 356.820312 " fill-opacity="1" fill-rule="nonzero"/><path fill="#4f4c4c" d="M 267.34375 196.722656 C 267.253906 191.511719 266.691406 186.417969 265.703125 181.480469 C 259.191406 221.097656 224.480469 245.085938 183.519531 252.355469 C 126.945312 262.394531 99.417969 291.742188 100.226562 338.523438 C 100.316406 343.734375 108.601562 320.429688 126.410156 306.875 C 169.242188 280.1875 173.242188 374.535156 173.242188 374.535156 C 177.503906 360.128906 190.101562 298.058594 226.46875 270.679688 C 249.769531 253.136719 267.882812 227.976562 267.34375 196.722656 " fill-opacity="1" fill-rule="nonzero"/><path fill="#f14624" d="M 16.566406 191.121094 C 22.011719 200.691406 34.019531 203.527344 43.386719 197.457031 C 52.75 191.382812 55.929688 178.703125 50.480469 169.128906 C 45.035156 159.558594 33.027344 156.722656 23.664062 162.796875 C 14.296875 168.871094 11.117188 181.550781 16.566406 191.121094 " fill-opacity="1" fill-rule="nonzero"/><g clip-path="url(#id1)"><path fill="#f14624" d="M 202.140625 258.863281 C 206.996094 257.03125 211.609375 254.78125 215.953125 252.171875 C 176.996094 259.140625 144.671875 233.601562 126.238281 196.425781 C 100.777344 145.074219 65.476562 128.277344 21.882812 144.722656 C 17.027344 146.554688 41.210938 146.761719 58.960938 159.445312 C 96.113281 191.933594 8.871094 227.390625 8.871094 227.390625 C 23.578125 226.6875 85.292969 218.09375 121.261719 244.09375 C 144.308594 260.753906 173.015625 269.851562 202.140625 258.863281 " fill-opacity="1" fill-rule="nonzero"/></g><path fill="#98198e" d="M 136.214844 14.464844 C 128.796875 22.9375 129.546875 35.5 137.894531 42.523438 C 146.242188 49.546875 159.019531 48.375 166.441406 39.90625 C 173.859375 31.433594 173.109375 18.871094 164.761719 11.847656 C 156.414062 4.824219 143.632812 5.996094 136.214844 14.464844 " fill-opacity="1" fill-rule="nonzero"/><path fill="#98198e" d="M 125.425781 216.609375 C 128.523438 220.691406 131.9375 224.402344 135.613281 227.730469 C 118.03125 192.386719 132.777344 152.578125 162.375 122.304688 C 203.25 80.488281 208.964844 40.726562 181.191406 4.074219 C 178.09375 -0.0078125 184.765625 23.449219 177.917969 44.859375 C 158.03125 91.667969 100.058594 19.167969 100.058594 19.167969 C 104.890625 33.15625 130.457031 89.960938 116.308594 133.449219 C 107.242188 161.316406 106.871094 192.125 125.425781 216.609375 " fill-opacity="1" fill-rule="nonzero"/><path fill="#51ade5" d="M 335.648438 71.035156 C 325.609375 66.695312 314.054688 71.628906 309.84375 82.050781 C 305.632812 92.476562 310.359375 104.441406 320.398438 108.78125 C 330.441406 113.121094 341.996094 108.1875 346.207031 97.765625 C 350.417969 87.339844 345.691406 75.375 335.648438 71.035156 " fill-opacity="1" fill-rule="nonzero"/><path fill="#51ade5" d="M 143.234375 128.277344 C 140.289062 132.636719 137.785156 137.179688 135.710938 141.851562 C 163.828125 113.015625 205.300781 113.949219 242.058594 132.433594 C 292.828125 157.964844 331.699219 150.179688 358.148438 111.050781 C 361.097656 106.6875 341.011719 120.992188 319.015625 121.539062 C 269.523438 117.980469 320.984375 37.640625 320.984375 37.640625 C 309.253906 46.996094 263.296875 90.742188 218.546875 91.617188 C 189.867188 92.179688 160.90625 102.132812 143.234375 128.277344 " fill-opacity="1" fill-rule="nonzero"/><path fill="#85c536" d="M 339.261719 282.839844 C 340.476562 271.679688 332.578125 262.15625 321.617188 261.574219 C 310.660156 260.992188 300.789062 269.566406 299.574219 280.730469 C 298.359375 291.890625 306.257812 301.414062 317.21875 301.996094 C 328.175781 302.578125 338.046875 294.003906 339.261719 282.839844 " fill-opacity="1" fill-rule="nonzero"/><g clip-path="url(#id2)"><path fill="#85c536" d="M 231.035156 115.925781 C 226.113281 114.535156 221.144531 113.636719 216.183594 113.195312 C 251.171875 130.730469 262.066406 171.152344 255.183594 212.890625 C 245.679688 270.535156 264 305.519531 308.164062 317.992188 C 313.085938 319.382812 293.988281 304.753906 287.230469 283.660156 C 276.519531 234.609375 366.378906 257.480469 366.378906 257.480469 C 354.285156 249.265625 300.269531 219.46875 286.746094 176.480469 C 278.082031 148.9375 260.539062 124.261719 231.035156 115.925781 " fill-opacity="1" fill-rule="nonzero"/></g><path fill="#f8bd0a" d="M 141.878906 357.246094 C 152.683594 354.683594 159.359375 343.855469 156.796875 333.0625 C 154.230469 322.269531 143.394531 315.597656 132.59375 318.15625 C 121.792969 320.71875 115.117188 331.546875 117.679688 342.339844 C 120.246094 353.132812 131.078125 359.804688 141.878906 357.246094 " fill-opacity="1" fill-rule="nonzero"/><g clip-path="url(#id3)"><path fill="#f8bd0a" d="M 267.519531 196.699219 C 267.425781 191.472656 266.859375 186.367188 265.863281 181.421875 C 259.367188 221.132812 224.59375 245.199219 183.546875 252.515625 C 126.851562 262.621094 99.28125 292.054688 100.125 338.9375 C 100.21875 344.164062 108.507812 320.796875 126.34375 307.203125 C 169.253906 280.421875 173.332031 374.976562 173.332031 374.976562 C 177.59375 360.535156 190.179688 298.320312 226.605469 270.851562 C 249.949219 253.25 268.085938 228.019531 267.519531 196.699219 " fill-opacity="1" fill-rule="nonzero"/></g></svg>